<svg width="28" height="24" viewBox="0 0 28 24" fill="none" xmlns="http://www.w3.org/2000/svg">
<path d="M19.8594 0.75C17.4395 0.75 15.3207 1.79062 14 3.54961C12.6793 1.79062 10.5605 0.75 8.14062 0.75C6.21433 0.752171 4.36755 1.51835 3.00545 2.88045C1.64335 4.24255 0.877171 6.08933 0.875 8.01562C0.875 16.2187 13.0379 22.8586 13.5559 23.1328C13.6924 23.2063 13.845 23.2447 14 23.2447C14.155 23.2447 14.3076 23.2063 14.4441 23.1328C14.9621 22.8586 27.125 16.2187 27.125 8.01562C27.1228 6.08933 26.3566 4.24255 24.9946 2.88045C23.6325 1.51835 21.7857 0.752171 19.8594 0.75ZM14 21.2344C11.8602 19.9875 2.75 14.3074 2.75 8.01562C2.75186 6.58651 3.3204 5.21647 4.33093 4.20593C5.34147 3.1954 6.71151 2.62686 8.14062 2.625C10.4199 2.625 12.3336 3.83906 13.1328 5.78906C13.2034 5.96101 13.3236 6.10808 13.478 6.21158C13.6324 6.31508 13.8141 6.37034 14 6.37034C14.1859 6.37034 14.3676 6.31508 14.522 6.21158C14.6764 6.10808 14.7966 5.96101 14.8672 5.78906C15.6664 3.83555 17.5801 2.625 19.8594 2.625C21.2885 2.62686 22.6585 3.1954 23.6691 4.20593C24.6796 5.21647 25.2481 6.58651 25.25 8.01562C25.25 14.298 16.1375 19.9863 14 21.2344Z" fill="#000"/>
</svg>
